<?xml version="1.0" standalone="no"?>
<!DOCTYPE svg PUBLIC "-//W3C//DTD SVG 20010904//EN"
 "http://www.w3.org/TR/2001/REC-SVG-20010904/DTD/svg10.dtd">
<svg version="1.0" xmlns="http://www.w3.org/2000/svg"
 width="476.000000pt" height="476.000000pt" viewBox="0 0 476.000000 476.000000"
 preserveAspectRatio="xMidYMid meet">
<metadata>
Created by potrace 1.11, written by Peter Selinger 2001-2013
</metadata>
<g transform="translate(0.000000,476.000000) scale(0.100000,-0.100000)"
fill="#000000" stroke="none">
<path d="M2369 4611 c-3 -55 -20 -2879 -23 -3771 -2 -493 -4 -473 52 -462 l23
5 -6 1321 c-4 726 -8 1607 -10 1956 -2 349 -4 710 -4 801 -1 140 -3 166 -16
166 -8 0 -15 -7 -16 -16z"/>
<path d="M1413 4422 c-9 -6 7 -36 53 -102 287 -415 474 -867 579 -1400 9 -44
43 -253 50 -305 8 -54 9 -66 19 -170 4 -38 9 -89 12 -111 8 -77 19 -253 30
-494 3 -74 8 -432 9 -795 2 -363 4 -662 4 -665 1 -3 13 -5 29 -4 15 1 34 3 42
3 13 1 15 62 14 488 -3 732 -17 1161 -49 1428 -3 22 -7 63 -10 90 -3 28 -7 66
-10 85 -3 19 -8 53 -11 75 -4 34 -18 119 -39 245 -3 14 -16 77 -31 140 -14 63
-28 125 -30 138 -6 31 -70 239 -106 347 -70 208 -201 485 -322 685 -29 47 -58
96 -66 110 -15 24 -137 199 -149 212 -3 4 -12 4 -18 0z"/>
<path d="M3314 4401 c-134 -168 -323 -499 -432 -756 -84 -200 -189 -521 -216
-665 -2 -14 -11 -57 -20 -95 -17 -82 -21 -100 -41 -215 -8 -47 -17 -105 -20
-130 -2 -25 -7 -61 -10 -80 -17 -116 -34 -304 -50 -555 -15 -236 -26 -1507
-13 -1520 10 -11 78 -11 79 -1 0 6 2 310 4 676 2 366 6 721 9 790 8 188 16
331 21 370 2 19 7 73 10 120 4 47 8 96 10 110 2 14 9 68 15 120 59 491 187
937 382 1325 81 162 214 380 289 476 33 42 34 45 17 51 -7 3 -22 -7 -34 -21z"/>
<path d="M460 3667 c0 -9 52 -31 139 -60 505 -168 846 -485 1065 -991 66 -153
143 -388 162 -494 3 -15 14 -67 24 -117 11 -49 22 -110 25 -135 3 -25 8 -52
10 -60 2 -8 6 -42 10 -75 3 -33 7 -71 10 -85 2 -14 7 -61 11 -105 3 -44 8
-100 11 -125 2 -25 7 -265 9 -535 3 -269 6 -494 8 -499 2 -10 88 -12 103 -3
10 6 9 862 -1 992 -9 120 -17 219 -21 245 -2 14 -7 52 -10 85 -9 82 -21 159
-51 320 -28 155 -106 411 -174 571 -229 541 -615 880 -1199 1053 -116 35 -131
37 -131 18z"/>
<path d="M4205 3660 c-576 -155 -985 -500 -1220 -1028 -53 -121 -108 -275
-136 -386 -12 -44 -23 -88 -25 -96 -10 -39 -43 -199 -48 -235 -4 -23 -8 -52
-11 -65 -5 -27 -11 -67 -20 -150 -4 -30 -8 -66 -10 -80 -2 -14 -6 -59 -9 -100
-3 -41 -9 -113 -12 -160 -7 -92 -13 -958 -7 -976 3 -8 101 -9 109 -1 1 1 5
229 8 507 3 278 7 519 10 535 2 17 7 66 10 110 3 44 11 116 16 160 6 44 13 98
16 120 3 22 7 47 9 55 2 8 6 33 10 55 8 57 42 215 66 304 49 185 167 486 221
563 10 14 18 29 18 33 0 12 93 150 155 230 63 81 187 208 260 266 177 140 419
257 673 325 6 2 12 10 12 19 0 19 -8 18 -95 -5z"/>
<path d="M348 2395 c-1 -1 -32 -6 -68 -9 -36 -4 -76 -8 -90 -10 -14 -2 -46 -7
-72 -11 -82 -12 -103 -20 -103 -41 0 -10 5 -18 10 -17 6 1 30 5 55 9 58 10
377 11 454 2 221 -29 472 -126 666 -258 247 -170 392 -399 462 -730 17 -80 21
-146 25 -419 4 -245 8 -330 18 -345 21 -33 24 -82 9 -138 -33 -119 -27 -195
20 -247 46 -51 44 -51 647 -51 623 0 604 -2 656 67 35 46 40 108 15 205 -21
83 -21 113 1 161 12 25 16 96 20 347 2 173 7 324 10 335 2 11 8 40 11 65 35
224 157 470 309 620 61 61 233 190 251 190 4 0 23 10 44 23 93 58 276 125 436
159 127 27 421 34 534 14 63 -11 74 -11 79 1 9 23 -6 30 -103 47 -142 26 -207
31 -379 30 -402 -2 -731 -126 -965 -363 -118 -120 -153 -169 -224 -309 -32
-65 -90 -219 -102 -276 -11 -49 -14 -62 -19 -86 -3 -14 -8 -45 -11 -70 -3 -25
-8 -56 -11 -70 -3 -14 -7 -197 -8 -408 -3 -313 -1 -391 11 -424 18 -51 18 -69
0 -94 -14 -18 -32 -19 -548 -20 -293 0 -541 3 -550 8 -26 13 -31 44 -14 101
12 43 14 118 11 427 -1 206 -6 395 -9 420 -6 40 -19 114 -32 185 -11 59 -75
238 -112 311 -145 288 -387 493 -707 597 -72 24 -150 42 -270 62 -41 7 -350
16 -357 10z"/>
</g>
</svg>
